<svg width="53" height="23" viewBox="0 0 53 23" fill="none" xmlns="http://www.w3.org/2000/svg">
<path d="M13.5797 21.303C12.9888 21.303 12.4703 21.1624 12.0243 20.8811C11.5811 20.5999 11.2345 20.2064 10.9845 19.7007C10.7373 19.1951 10.6138 18.6042 10.6138 17.928C10.6138 17.2462 10.7373 16.651 10.9845 16.1425C11.2345 15.634 11.5811 15.2391 12.0243 14.9578C12.4703 14.6766 12.9888 14.536 13.5797 14.536C14.1706 14.536 14.6876 14.6766 15.1308 14.9578C15.5768 15.2391 15.9234 15.634 16.1706 16.1425C16.4206 16.651 16.5456 17.2462 16.5456 17.928C16.5456 18.6042 16.4206 19.1951 16.1706 19.7007C15.9234 20.2064 15.5768 20.5999 15.1308 20.8811C14.6876 21.1624 14.1706 21.303 13.5797 21.303ZM13.5797 20.3996C14.0285 20.3996 14.3978 20.2846 14.6876 20.0544C14.9774 19.8243 15.1919 19.5218 15.3311 19.1468C15.4703 18.7718 15.5399 18.3655 15.5399 17.928C15.5399 17.4905 15.4703 17.0828 15.3311 16.705C15.1919 16.3272 14.9774 16.0218 14.6876 15.7888C14.3978 15.5559 14.0285 15.4394 13.5797 15.4394C13.1308 15.4394 12.7615 15.5559 12.4717 15.7888C12.1819 16.0218 11.9675 16.3272 11.8282 16.705C11.689 17.0828 11.6194 17.4905 11.6194 17.928C11.6194 18.3655 11.689 18.7718 11.8282 19.1468C11.9675 19.5218 12.1819 19.8243 12.4717 20.0544C12.7615 20.2846 13.1308 20.3996 13.5797 20.3996ZM19.0864 12.4394V21.1667H18.0807V12.4394H19.0864ZM21.9341 12.4394V21.1667H20.9284V12.4394H21.9341ZM26.4351 21.303C25.8442 21.303 25.3258 21.1624 24.8797 20.8811C24.4366 20.5999 24.09 20.2064 23.84 19.7007C23.5928 19.1951 23.4692 18.6042 23.4692 17.928C23.4692 17.2462 23.5928 16.651 23.84 16.1425C24.09 15.634 24.4366 15.2391 24.8797 14.9578C25.3258 14.6766 25.8442 14.536 26.4351 14.536C27.026 14.536 27.5431 14.6766 27.9863 14.9578C28.4323 15.2391 28.7789 15.634 29.026 16.1425C29.276 16.651 29.401 17.2462 29.401 17.928C29.401 18.6042 29.276 19.1951 29.026 19.7007C28.7789 20.2064 28.4323 20.5999 27.9863 20.8811C27.5431 21.1624 27.026 21.303 26.4351 21.303ZM26.4351 20.3996C26.884 20.3996 27.2533 20.2846 27.5431 20.0544C27.8329 19.8243 28.0474 19.5218 28.1866 19.1468C28.3258 18.7718 28.3954 18.3655 28.3954 17.928C28.3954 17.4905 28.3258 17.0828 28.1866 16.705C28.0474 16.3272 27.8329 16.0218 27.5431 15.7888C27.2533 15.5559 26.884 15.4394 26.4351 15.4394C25.9863 15.4394 25.617 15.5559 25.3272 15.7888C25.0374 16.0218 24.8229 16.3272 24.6837 16.705C24.5445 17.0828 24.4749 17.4905 24.4749 17.928C24.4749 18.3655 24.5445 18.7718 24.6837 19.1468C24.8229 19.5218 25.0374 19.8243 25.3272 20.0544C25.617 20.2846 25.9863 20.3996 26.4351 20.3996ZM31.0726 12.4394H32.3339L35.2998 19.6837H35.4021L38.368 12.4394H39.6294V21.1667H38.6407V14.536H38.5555L35.8282 21.1667H34.8737L32.1464 14.536H32.0612V21.1667H31.0726V12.4394ZM44.3563 21.303C43.7256 21.303 43.1816 21.1638 42.7242 20.8854C42.2697 20.6042 41.9188 20.2121 41.6716 19.7093C41.4273 19.2036 41.3052 18.6155 41.3052 17.9451C41.3052 17.2746 41.4273 16.6837 41.6716 16.1723C41.9188 15.6581 42.2626 15.2576 42.7029 14.9706C43.1461 14.6809 43.6631 14.536 44.254 14.536C44.5949 14.536 44.9316 14.5928 45.264 14.7064C45.5964 14.8201 45.8989 15.0047 46.1716 15.2604C46.4444 15.5132 46.6617 15.8485 46.8236 16.2661C46.9856 16.6837 47.0665 17.1979 47.0665 17.8087V18.2348H42.0211V17.3655H46.0438C46.0438 16.9962 45.9699 16.6667 45.8222 16.3769C45.6773 16.0871 45.4699 15.8584 45.2001 15.6908C44.933 15.5232 44.6177 15.4394 44.254 15.4394C43.8535 15.4394 43.5069 15.5388 43.2143 15.7377C42.9245 15.9337 42.7015 16.1894 42.5452 16.5047C42.389 16.8201 42.3108 17.1581 42.3108 17.5189V18.0985C42.3108 18.5928 42.3961 19.0118 42.5665 19.3556C42.7398 19.6965 42.9799 19.9564 43.2867 20.1354C43.5935 20.3115 43.9501 20.3996 44.3563 20.3996C44.6205 20.3996 44.8591 20.3627 45.0722 20.2888C45.2881 20.2121 45.4742 20.0985 45.6304 19.9479C45.7867 19.7945 45.9074 19.6042 45.9927 19.3769L46.9643 19.6496C46.862 19.9792 46.6901 20.2689 46.4486 20.5189C46.2072 20.7661 45.9089 20.9593 45.5537 21.0985C45.1986 21.2348 44.7995 21.303 44.3563 21.303ZM49.9259 12.4394L49.8407 18.7121H48.852L48.7668 12.4394H49.9259ZM49.3464 21.2348C49.1361 21.2348 48.9557 21.1596 48.8052 21.009C48.6546 20.8584 48.5793 20.678 48.5793 20.4678C48.5793 20.2576 48.6546 20.0772 48.8052 19.9266C48.9557 19.776 49.1361 19.7007 49.3464 19.7007C49.5566 19.7007 49.737 19.776 49.8876 19.9266C50.0381 20.0772 50.1134 20.2576 50.1134 20.4678C50.1134 20.607 50.0779 20.7348 50.0069 20.8513C49.9387 20.9678 49.8464 21.0615 49.7299 21.1326C49.6162 21.2007 49.4884 21.2348 49.3464 21.2348Z" fill="black"/>
<path d="M7.44107 8.65588L5.98124 12.6792L11.0914 14.4856L10.358 16.5067L5.24791 14.7003L3.23894 20.2371L0.693297 19.3372L5.62535 5.74436L14.224 8.78384L13.494 10.7955L7.44107 8.65588Z" fill="#DA1717"/>
</svg>
