<svg width="41" height="10" viewBox="0 0 41 10" fill="none" xmlns="http://www.w3.org/2000/svg">
<path d="M3.57955 9.13636C2.98864 9.13636 2.47017 8.99574 2.02415 8.71449C1.58097 8.43324 1.23438 8.03977 0.984375 7.53409C0.737216 7.02841 0.613636 6.4375 0.613636 5.76136C0.613636 5.07955 0.737216 4.48437 0.984375 3.97585C1.23438 3.46733 1.58097 3.07244 2.02415 2.79119C2.47017 2.50994 2.98864 2.36932 3.57955 2.36932C4.17045 2.36932 4.6875 2.50994 5.13068 2.79119C5.5767 3.07244 5.9233 3.46733 6.17045 3.97585C6.42045 4.48437 6.54545 5.07955 6.54545 5.76136C6.54545 6.4375 6.42045 7.02841 6.17045 7.53409C5.9233 8.03977 5.5767 8.43324 5.13068 8.71449C4.6875 8.99574 4.17045 9.13636 3.57955 9.13636ZM3.57955 8.23295C4.02841 8.23295 4.39773 8.1179 4.6875 7.88778C4.97727 7.65767 5.19176 7.35511 5.33097 6.98011C5.47017 6.60511 5.53977 6.19886 5.53977 5.76136C5.53977 5.32386 5.47017 4.91619 5.33097 4.53835C5.19176 4.16051 4.97727 3.85511 4.6875 3.62216C4.39773 3.3892 4.02841 3.27273 3.57955 3.27273C3.13068 3.27273 2.76136 3.3892 2.47159 3.62216C2.18182 3.85511 1.96733 4.16051 1.82812 4.53835C1.68892 4.91619 1.61932 5.32386 1.61932 5.76136C1.61932 6.19886 1.68892 6.60511 1.82812 6.98011C1.96733 7.35511 2.18182 7.65767 2.47159 7.88778C2.76136 8.1179 3.13068 8.23295 3.57955 8.23295ZM9.08629 0.272727V9H8.08061V0.272727H9.08629ZM11.9339 0.272727V9H10.9283V0.272727H11.9339ZM16.435 9.13636C15.8441 9.13636 15.3256 8.99574 14.8796 8.71449C14.4364 8.43324 14.0898 8.03977 13.8398 7.53409C13.5927 7.02841 13.4691 6.4375 13.4691 5.76136C13.4691 5.07955 13.5927 4.48437 13.8398 3.97585C14.0898 3.46733 14.4364 3.07244 14.8796 2.79119C15.3256 2.50994 15.8441 2.36932 16.435 2.36932C17.0259 2.36932 17.543 2.50994 17.9862 2.79119C18.4322 3.07244 18.7788 3.46733 19.0259 3.97585C19.2759 4.48437 19.4009 5.07955 19.4009 5.76136C19.4009 6.4375 19.2759 7.02841 19.0259 7.53409C18.7788 8.03977 18.4322 8.43324 17.9862 8.71449C17.543 8.99574 17.0259 9.13636 16.435 9.13636ZM16.435 8.23295C16.8839 8.23295 17.2532 8.1179 17.543 7.88778C17.8327 7.65767 18.0472 7.35511 18.1864 6.98011C18.3256 6.60511 18.3952 6.19886 18.3952 5.76136C18.3952 5.32386 18.3256 4.91619 18.1864 4.53835C18.0472 4.16051 17.8327 3.85511 17.543 3.62216C17.2532 3.3892 16.8839 3.27273 16.435 3.27273C15.9862 3.27273 15.6168 3.3892 15.3271 3.62216C15.0373 3.85511 14.8228 4.16051 14.6836 4.53835C14.5444 4.91619 14.4748 5.32386 14.4748 5.76136C14.4748 6.19886 14.5444 6.60511 14.6836 6.98011C14.8228 7.35511 15.0373 7.65767 15.3271 7.88778C15.6168 8.1179 15.9862 8.23295 16.435 8.23295ZM21.0724 0.272727H22.3338L25.2997 7.51705H25.402L28.3679 0.272727H29.6293V9H28.6406V2.36932H28.5554L25.8281 9H24.8736L22.1463 2.36932H22.0611V9H21.0724V0.272727ZM34.3562 9.13636C33.7255 9.13636 33.1815 8.99716 32.7241 8.71875C32.2695 8.4375 31.9187 8.04545 31.6715 7.54261C31.4272 7.03693 31.305 6.44886 31.305 5.77841C31.305 5.10795 31.4272 4.51705 31.6715 4.00568C31.9187 3.49148 32.2624 3.09091 32.7028 2.80398C33.146 2.5142 33.663 2.36932 34.2539 2.36932C34.5948 2.36932 34.9315 2.42614 35.2638 2.53977C35.5962 2.65341 35.8988 2.83807 36.1715 3.09375C36.4442 3.34659 36.6616 3.68182 36.8235 4.09943C36.9854 4.51705 37.0664 5.03125 37.0664 5.64205V6.06818H32.021V5.19886H36.0437C36.0437 4.82955 35.9698 4.5 35.8221 4.21023C35.6772 3.92045 35.4698 3.69176 35.1999 3.52415C34.9329 3.35653 34.6175 3.27273 34.2539 3.27273C33.8533 3.27273 33.5067 3.37216 33.2141 3.57102C32.9244 3.76705 32.7013 4.02273 32.5451 4.33807C32.3888 4.65341 32.3107 4.99148 32.3107 5.35227V5.93182C32.3107 6.42614 32.396 6.84517 32.5664 7.18892C32.7397 7.52983 32.9798 7.78977 33.2866 7.96875C33.5934 8.14489 33.9499 8.23295 34.3562 8.23295C34.6204 8.23295 34.859 8.19602 35.0721 8.12216C35.288 8.04545 35.4741 7.93182 35.6303 7.78125C35.7866 7.62784 35.9073 7.4375 35.9925 7.21023L36.9641 7.48295C36.8619 7.8125 36.69 8.10227 36.4485 8.35227C36.207 8.59943 35.9087 8.79261 35.5536 8.93182C35.1985 9.06818 34.7994 9.13636 34.3562 9.13636ZM39.9258 0.272727L39.8406 6.54545H38.8519L38.7667 0.272727H39.9258ZM39.3462 9.06818C39.136 9.06818 38.9556 8.9929 38.805 8.84233C38.6545 8.69176 38.5792 8.51136 38.5792 8.30114C38.5792 8.09091 38.6545 7.91051 38.805 7.75994C38.9556 7.60937 39.136 7.53409 39.3462 7.53409C39.5565 7.53409 39.7369 7.60937 39.8874 7.75994C40.038 7.91051 40.1133 8.09091 40.1133 8.30114C40.1133 8.44034 40.0778 8.56818 40.0067 8.68466C39.9386 8.80114 39.8462 8.89489 39.7298 8.96591C39.6161 9.03409 39.4883 9.06818 39.3462 9.06818Z" fill="black"/>
</svg>
